<svg xmlns="http://www.w3.org/2000/svg" viewBox="0 0 1200 630" width="1200" height="630">
  <defs>
    <radialGradient id="bg-grad" cx="30%" cy="30%" r="90%">
      <stop offset="0%" stop-color="#0d9488" stop-opacity="0.22"/>
      <stop offset="55%" stop-color="#0a0e14" stop-opacity="1"/>
      <stop offset="100%" stop-color="#050708" stop-opacity="1"/>
    </radialGradient>
    <pattern id="dots" width="28" height="28" patternUnits="userSpaceOnUse">
      <circle cx="2" cy="2" r="1" fill="#2d3744" opacity="0.45"/>
    </pattern>
  </defs>

  <rect width="1200" height="630" fill="url(#bg-grad)"/>
  <rect width="1200" height="630" fill="url(#dots)"/>

  <g transform="translate(940, 315)" opacity="0.95">
    <circle cx="0" cy="0" r="170" fill="none" stroke="#0d9488" stroke-width="1.6" opacity="0.45"/>
    <circle cx="0" cy="-130" r="22" fill="#0d9488" opacity="0.95"/>
    <circle cx="-115" cy="65" r="22" fill="#0d9488" opacity="0.95"/>
    <circle cx="115" cy="65" r="22" fill="#0d9488" opacity="0.95"/>
    <circle cx="0" cy="0" r="26" fill="#d9a752"/>
    <line x1="0" y1="-108" x2="0" y2="-22" stroke="#d9a752" stroke-width="2" opacity="0.7"/>
    <line x1="-97" y1="55" x2="-18" y2="11" stroke="#d9a752" stroke-width="2" opacity="0.7"/>
    <line x1="97" y1="55" x2="18" y2="11" stroke="#d9a752" stroke-width="2" opacity="0.7"/>
  </g>

  <g transform="translate(80, 100)">
    <rect x="0" y="0" width="22" height="22" rx="3" fill="none" stroke="#64748b" stroke-width="1.4"/>
    <circle cx="11" cy="11" r="8" fill="none" stroke="#0d9488" stroke-width="1.4"/>
    <circle cx="11" cy="11" r="1.6" fill="#d9a752"/>
    <text x="40" y="10" font-family="ui-monospace, Menlo, monospace" font-size="13" fill="#94a3b8" letter-spacing="3">QWF ADVISOR BRAIN</text>
    <text x="40" y="28" font-family="ui-monospace, Menlo, monospace" font-size="11" fill="#64748b" letter-spacing="2">PHASE 0 . FOUNDATIONS . 2026-04-27</text>
  </g>

  <g transform="translate(80, 245)">
    <text font-family="'Source Serif 4', 'Source Serif Pro', Georgia, serif" font-size="60" font-weight="500" fill="#ebf0f5">
      <tspan x="0" y="0">The Brain grows</tspan>
      <tspan x="0" y="74" fill="#d9a752">because it gets</tspan>
      <tspan x="0" y="148" fill="#d9a752">corrected.</tspan>
    </text>
  </g>

  <g transform="translate(80, 560)">
    <line x1="0" y1="-18" x2="620" y2="-18" stroke="#2d3744" stroke-width="1"/>
    <text x="0" y="8" font-family="system-ui, -apple-system, sans-serif" font-size="18" fill="#a5afb9" font-weight="400">
      brain.quietlyos.org
    </text>
    <text x="1120" y="8" text-anchor="end" font-family="ui-monospace, Menlo, monospace" font-size="13" fill="#64748b" letter-spacing="2">
      QUIETLY WORKING FOUNDATION . 501(c)(3)
    </text>
  </g>
</svg>
